<svg width="20" height="20" viewBox="0 0 20 20" fill="none" xmlns="http://www.w3.org/2000/svg">
<path d="M0.90918 7.36368L2.56373 9.00004C4.54433 7.04362 7.21614 5.94653 10.0001 5.94653C12.784 5.94653 15.4558 7.04362 17.4365 9.00004L19.091 7.36368C16.6686 4.97419 13.4027 3.63452 10.0001 3.63452C6.59746 3.63452 3.33163 4.97419 0.90918 7.36368ZM7.51827 13.9091L10.0001 16.3637L12.4819 13.9091C11.8226 13.253 10.9303 12.8846 10.0001 12.8846C9.0699 12.8846 8.17757 13.253 7.51827 13.9091ZM4.21827 10.6364L5.87282 12.2728C6.97243 11.1841 8.45727 10.5734 10.0046 10.5734C11.552 10.5734 13.0368 11.1841 14.1365 12.2728L15.7819 10.6364C14.242 9.11524 12.1646 8.26222 10.0001 8.26222C7.83554 8.26222 5.75819 9.11524 4.21827 10.6364Z" fill="white"/>
</svg>
