<svg width="41" height="40" viewBox="0 0 41 40" fill="none" xmlns="http://www.w3.org/2000/svg">
<path d="M7.77259 21.8182H9.59078V25.4545H4.13623V3.63635H36.8635V10.9091H33.2271V7.27272H7.77259V21.8182Z" fill="#EDBC10"/>
<path d="M7.77259 29.0909H13.2271V32.7273H7.77259V29.0909Z" fill="#EDBC10"/>
<path d="M19.5262 21.5976L22.0975 19.0263L25.9544 22.8832L29.8114 19.0263L32.3827 21.5976L28.5257 25.4545L32.3827 29.3115L29.8114 31.8828L25.9544 28.0258L22.0975 31.8828L19.5262 29.3115L23.3831 25.4545L19.5262 21.5976Z" fill="#EDBC10"/>
<path fill-rule="evenodd" clip-rule="evenodd" d="M26.1726 12.6C23.6554 12.6 21.1947 13.3464 19.1017 14.7449C17.0087 16.1434 15.3774 18.1311 14.4141 20.4567C13.4508 22.7824 13.1988 25.3414 13.6899 27.8102C14.181 30.2791 15.3931 32.5469 17.1731 34.3268C18.953 36.1067 21.2208 37.3189 23.6896 37.81C26.1585 38.3011 28.7175 38.049 31.0431 37.0857C33.3687 36.1224 35.3564 34.4911 36.7549 32.3982C38.1534 30.3052 38.8999 27.8445 38.8999 25.3273C38.8999 21.9518 37.559 18.7145 35.1721 16.3277C32.7853 13.9409 29.5481 12.6 26.1726 12.6ZM26.1726 34.4182C24.3746 34.4182 22.6169 33.885 21.122 32.8861C19.627 31.8872 18.4618 30.4674 17.7737 28.8062C17.0856 27.1451 16.9056 25.3172 17.2564 23.5537C17.6071 21.7903 18.473 20.1704 19.7443 18.899C21.0157 17.6276 22.6356 16.7618 24.399 16.411C26.1625 16.0603 27.9904 16.2403 29.6515 16.9284C31.3127 17.6164 32.7325 18.7816 33.7314 20.2766C34.7303 21.7716 35.2635 23.5293 35.2635 25.3273C35.2635 27.7383 34.3057 30.0506 32.6008 31.7555C30.896 33.4604 28.5837 34.4182 26.1726 34.4182Z" fill="#EDBC10"/>
</svg>
