<svg width="40" height="40" viewBox="0 0 40 40" fill="none" xmlns="http://www.w3.org/2000/svg">
<path d="M25.8177 13.6364L28.3632 16.1819L20.7268 24.0001L17.9995 26.5455L11.6359 20.1819L14.1814 17.4546L17.9995 21.4546L25.8177 13.6364Z" fill="#67D086"/>
<path fill-rule="evenodd" clip-rule="evenodd" d="M5.4541 5.45459V23.4546C5.4541 33.2728 19.9996 38.1819 19.9996 38.1819C19.9996 38.1819 34.545 33.2728 34.545 23.4546V5.45459H5.4541ZM20.8629 33.734C20.5372 33.901 20.2461 34.0503 19.9996 34.1818C19.753 34.0503 19.4619 33.901 19.1362 33.734C15.8598 32.0535 9.09047 28.5814 9.09047 23.4546V9.09095H30.9086V23.4546C30.9086 28.5814 24.1393 32.0535 20.8629 33.734Z" fill="#67D086"/>
</svg>
