<svg width="20" height="20" viewBox="0 0 20 20" fill="none" xmlns="http://www.w3.org/2000/svg">
<path d="M15.782 4.21821L15.1365 3.57275L9.35472 9.35457C9.25956 9.43607 9.18226 9.53636 9.1277 9.64914C9.07313 9.76193 9.04247 9.88478 9.03763 10.01C9.03279 10.1352 9.05389 10.26 9.0996 10.3767C9.1453 10.4933 9.21462 10.5993 9.30322 10.6879C9.39182 10.7765 9.49777 10.8458 9.61443 10.8915C9.73109 10.9372 9.85593 10.9583 9.98113 10.9535C10.1063 10.9486 10.2292 10.918 10.342 10.8634C10.4548 10.8088 10.555 10.7316 10.6365 10.6364L12.4547 8.81821C12.67 9.26994 12.7569 9.77221 12.7058 10.27C12.6547 10.7678 12.4677 11.242 12.1651 11.6406C11.8625 12.0392 11.4561 12.3468 10.9904 12.5299C10.5247 12.7129 10.0175 12.7643 9.52454 12.6784C9.03155 12.5925 8.57171 12.3726 8.19535 12.0428C7.81898 11.713 7.54062 11.286 7.39073 10.8085C7.24083 10.3311 7.22519 9.82159 7.34551 9.33585C7.46584 8.85012 7.71748 8.40684 8.0729 8.05457L6.78199 6.78184C6.17422 7.39009 5.75143 8.15826 5.56273 8.99716C5.37402 9.83605 5.42713 10.7113 5.7159 11.5212C6.00466 12.3311 6.51723 13.0425 7.1941 13.5728C7.87096 14.1031 8.68436 14.4305 9.53985 14.5171C10.3953 14.6036 11.2578 14.4457 12.0272 14.0618C12.7966 13.6778 13.4412 13.0835 13.8864 12.3478C14.3315 11.6121 14.5588 10.7653 14.542 9.90556C14.5251 9.04587 14.2647 8.20859 13.7911 7.49094L15.1002 6.18184C15.8257 7.16184 16.2545 8.32966 16.3354 9.54633C16.4163 10.763 16.1459 11.9773 15.5565 13.0447C14.967 14.1121 14.0833 14.9877 13.0105 15.5673C11.9377 16.1469 10.7209 16.406 9.50504 16.3139C8.28917 16.2218 7.12535 15.7823 6.1521 15.0477C5.17884 14.3132 4.43712 13.3144 4.01521 12.1704C3.59329 11.0263 3.50895 9.78518 3.77221 8.59457C4.03547 7.40397 4.63525 6.31407 5.50018 5.45457L4.21836 4.21821C3.26598 5.1694 2.56299 6.34087 2.1717 7.62877C1.78041 8.91667 1.71291 10.2812 1.97518 11.6014C2.23745 12.9217 2.82139 14.1568 3.67524 15.1973C4.52909 16.2379 5.62647 17.0517 6.87011 17.5666C8.11374 18.0816 9.46521 18.2817 10.8047 18.1494C12.1442 18.017 13.4304 17.5562 14.5492 16.8079C15.668 16.0595 16.5849 15.0466 17.2186 13.8591C17.8523 12.6716 18.1832 11.3461 18.182 10C18.184 8.92549 17.973 7.86121 17.561 6.86877C17.1491 5.87633 16.5444 4.97543 15.782 4.21821Z" fill="white"/>
</svg>
