<svg width="20" height="20" viewBox="0 0 20 20" fill="none" xmlns="http://www.w3.org/2000/svg">
<path d="M17.2729 10C17.2729 8.07118 16.5066 6.22133 15.1427 4.85743C13.7788 3.49353 11.929 2.72729 10.0002 2.72729V4.54548C11.133 4.54679 12.2373 4.90078 13.1597 5.55829C14.0822 6.2158 14.7771 7.14421 15.1479 8.21462C15.5187 9.28504 15.547 10.4443 15.2289 11.5316C14.9108 12.6188 14.2621 13.5801 13.3729 14.2818L11.8183 12.7273V17.2727H16.3638L14.6638 15.5727C15.4796 14.891 16.1359 14.0387 16.5867 13.0759C17.0375 12.1131 17.2717 11.0631 17.2729 10Z" fill="white"/>
<path d="M4.54561 10C4.54744 9.17462 4.73658 8.36041 5.09877 7.61871C5.46095 6.87702 5.98674 6.2272 6.63652 5.7182L8.18197 7.27275V2.72729H3.63652L5.33652 4.42729C4.19334 5.38591 3.37264 6.6729 2.98569 8.11375C2.59875 9.5546 2.66428 11.0796 3.17341 12.4819C3.68254 13.8843 4.61063 15.0961 5.83183 15.9531C7.05303 16.8101 8.50825 17.2708 10.0002 17.2727V15.4546C8.55352 15.4546 7.16613 14.8799 6.14321 13.857C5.12028 12.834 4.54561 11.4467 4.54561 10Z" fill="white"/>
</svg>
