<svg width="20" height="20" viewBox="0 0 20 20" fill="none" xmlns="http://www.w3.org/2000/svg">
<path d="M12.4965 12.841L11.5297 11.8698C11.1235 12.1879 10.7947 12.5942 10.5683 13.0576C10.3418 13.5211 10.2232 14.0298 10.222 14.5455C10.222 15.4497 10.5819 16.3166 11.2217 16.9559C11.8614 17.5952 12.7291 17.9546 13.6338 17.9546V19.091C12.7007 19.0898 11.7901 18.8019 11.0264 18.2662C10.2627 17.7306 9.68282 16.9729 9.36444 16.0965C9.04605 15.2201 9.00438 14.2671 9.24636 13.3666C9.48833 12.4662 10.0017 11.6619 10.7165 11.0628L9.65385 10.0001H12.4965V12.841Z" fill="white"/>
<path d="M13.6338 10.0001C14.84 10.0002 15.9964 10.4794 16.8493 11.3318C17.7023 12.1842 18.1819 13.34 18.1819 14.5455C18.1812 15.2098 18.0349 15.866 17.7531 16.4676C17.4712 17.0693 17.0603 17.6023 16.5502 18.0283L17.6137 19.091H14.771V16.2501L15.7432 17.2213C16.2991 16.7827 16.7046 16.1819 16.9035 15.5026C17.1024 14.8231 17.0848 14.0986 16.8529 13.4296C16.621 12.7606 16.186 12.1804 15.6091 11.7694C15.0323 11.3587 14.342 11.1373 13.6338 11.1365V10.0001Z" fill="white"/>
<path fill-rule="evenodd" clip-rule="evenodd" d="M7.27282 0.90918C7.82407 0.90918 8.36227 1.07651 8.81667 1.38858C9.27101 1.70063 9.62019 2.14281 9.81809 2.65723H13.6365V8.11177H11.8183V4.47541H2.72736V16.2936H8.18191V18.1118H0.90918V2.65723H4.72754C4.92545 2.14281 5.27462 1.70063 5.72896 1.38858C6.18337 1.07651 6.72157 0.90918 7.27282 0.90918ZM7.27282 2.29412C7.12898 2.29412 6.98847 2.33672 6.86887 2.41664C6.74936 2.49652 6.6558 2.60965 6.60076 2.74245C6.54572 2.87535 6.53186 3.02219 6.55993 3.16326C6.58805 3.30416 6.65719 3.43365 6.75879 3.53525C6.86044 3.63684 6.98982 3.70603 7.13077 3.73411C7.27167 3.76214 7.41794 3.74814 7.55069 3.69327C7.68353 3.63825 7.79749 3.54469 7.8774 3.42516C7.95726 3.30563 7.99986 3.16497 7.99991 3.02122C8.00819 2.92377 7.99524 2.82546 7.96174 2.73358C7.92814 2.64163 7.87469 2.55779 7.80549 2.48855C7.73622 2.41929 7.65246 2.36591 7.56046 2.3323C7.46849 2.29871 7.37037 2.28583 7.27282 2.29412Z" fill="white"/>
<path d="M8.18191 11.7481H4.54554V9.92995H8.18191V11.7481Z" fill="white"/>
<path d="M10.0001 8.11177H4.54554V6.29359H10.0001V8.11177Z" fill="white"/>
</svg>
