<svg width="20" height="21" viewBox="0 0 20 21" fill="none" xmlns="http://www.w3.org/2000/svg">
<path d="M10.0002 2.31824C8.38197 2.31824 6.8001 2.79809 5.45461 3.69712C4.10911 4.59615 3.06043 5.87398 2.44117 7.36901C1.8219 8.86404 1.65988 10.5091 1.97557 12.0962C2.29127 13.6834 3.07051 15.1412 4.21476 16.2855C5.35901 17.4297 6.81687 18.209 8.40399 18.5247C9.99111 18.8404 11.6362 18.6783 13.1312 18.0591C14.6263 17.4398 15.9041 16.3911 16.8031 15.0456C17.7021 13.7001 18.182 12.1183 18.182 10.5001C18.182 9.4256 17.9704 8.36167 17.5592 7.36901C17.148 6.37635 16.5454 5.47439 15.7856 4.71464C15.0258 3.95488 14.1239 3.35222 13.1312 2.94104C12.1386 2.52987 11.0746 2.31824 10.0002 2.31824ZM10.9093 15.9546H9.09109V14.1364H10.9093V15.9546ZM10.9093 12.3182H9.09109V5.04551H10.9093V12.3182Z" fill="#F20028"/>
</svg>
