<svg width="42" height="36" viewBox="0 0 42 36" fill="none" xmlns="http://www.w3.org/2000/svg">
<path d="M20.7991 0C23.2511 3.2308e-06 25.6773 0.502565 27.9261 1.47656C30.0422 2.39315 31.9587 3.70909 33.571 5.35C34.6305 5.17408 35.4892 5.01169 36.1015 4.8875C36.4461 4.81759 36.713 4.76002 36.894 4.72031C36.9846 4.70046 37.054 4.68492 37.1018 4.67422C37.125 4.66903 37.1452 4.6645 37.1597 4.66133C37.1656 4.66003 37.1731 4.65817 37.1804 4.65664L40.3772 3.89062C40.5623 3.84595 40.7557 3.85555 40.9347 3.91758L41.0112 3.94766L41.0851 3.98398C41.2535 4.07592 41.3925 4.21549 41.4839 4.38633L41.4882 4.39453C41.5886 4.58758 41.6225 4.80852 41.5847 5.02305C41.5594 5.16624 41.5024 5.30052 41.4202 5.41797L37.9198 12.6742C38.4207 14.3358 38.675 16.062 38.6733 17.798L38.6675 18.257C38.4222 27.8657 30.4987 35.6 20.7991 35.6C11.0996 35.6 3.17639 27.8657 2.93114 18.257L2.92528 17.798C2.92389 16.0619 3.17756 14.3356 3.67802 12.6738L0.178799 5.4168C0.0953908 5.2972 0.0379636 5.16032 0.0135649 5.01445C-0.0226639 4.7977 0.0141582 4.57525 0.118252 4.38203L0.160049 4.31133C0.264149 4.15144 0.412663 4.02472 0.587393 3.94687L0.663174 3.9168C0.816909 3.86298 0.981584 3.84815 1.14247 3.87305L1.22255 3.88867L4.4206 4.65742C4.42598 4.65856 4.43109 4.66 4.43544 4.66094C4.45016 4.66413 4.47061 4.66864 4.49403 4.67383C4.54217 4.68448 4.61187 4.69979 4.70263 4.71953C4.88411 4.75901 5.15139 4.81621 5.49638 4.88594C6.10907 5.00977 6.96791 5.17234 8.02763 5.34961C9.63989 3.70881 11.5565 2.39309 13.6726 1.47656C15.9213 0.502589 18.3471 1.10855e-05 20.7991 0Z" fill="white"/>
<path d="M37.4483 7.62523L35.3745 11.9416C35.0771 11.5228 34.7463 11.1286 34.3854 10.7627C35.7135 9.30993 36.7971 8.24511 37.4483 7.62999V7.62523ZM35.0108 7.74408C33.8383 8.92584 32.2534 10.6219 30.4947 12.7725C27.5617 16.3577 23.652 21.8539 20.7992 28.5214C17.9463 21.8539 14.0375 16.3577 11.1036 12.7706C9.34489 10.62 7.7619 8.92393 6.58755 7.74217C11.2642 8.57182 15.9991 9.03404 20.7485 9.12454H20.8488C25.5985 9.03408 30.3338 8.57187 35.0108 7.74217V7.74408ZM20.7992 4.02196C23.8875 4.01645 26.8881 5.04512 29.3185 6.94261C26.8418 7.22783 23.9432 7.46076 20.8211 7.51305H20.7734C17.6532 7.46266 14.7584 7.22783 12.276 6.94261C14.7073 5.04398 17.7094 4.01523 20.7992 4.02196ZM31.3874 6.68401C31.101 6.72299 30.805 6.76197 30.5052 6.8C27.8217 4.45142 24.3713 3.15612 20.7987 3.15612C17.226 3.15612 13.7756 4.45142 11.0921 6.8C10.7923 6.76197 10.4944 6.72299 10.2109 6.68401C13.0694 3.98408 16.8592 2.47901 20.7992 2.47901C24.7391 2.47901 28.5289 3.98408 31.3874 6.68401ZM7.21292 10.7627C6.852 11.1286 6.52122 11.5228 6.22378 11.9416L4.15005 7.62523C4.80119 8.24321 5.88484 9.30803 7.21292 10.7627ZM11.7576 16.2531C12.9682 17.8694 14.2094 19.6701 15.4067 21.6314C15.2422 21.6835 15.0748 21.726 14.9054 21.7588C14.7676 21.7751 14.6289 21.7834 14.4901 21.7835C13.8456 21.7841 13.2138 21.6047 12.6664 21.2658C12.1191 20.9269 11.6781 20.4419 11.3936 19.866C11.109 19.2901 10.9923 18.6464 11.0566 18.0077C11.121 17.3691 11.3638 16.7613 11.7576 16.2531ZM10.1669 18.3447C10.1662 18.9759 10.3061 19.5993 10.5765 20.1701C9.94664 19.3905 9.5992 18.4221 9.59037 17.4214C9.58153 16.4208 9.91182 15.4465 10.5278 14.6559C10.7551 14.943 10.9845 15.2371 11.2162 15.5382C10.5402 16.3192 10.1676 17.3156 10.166 18.3466L10.1669 18.3447ZM6.13881 17.3398C6.13159 15.3396 6.90332 13.4145 8.29179 11.9691C8.67943 12.4128 9.07884 12.8818 9.49002 13.3762C8.58771 14.394 8.05455 15.6838 7.97595 17.0392C7.89735 18.3946 8.27786 19.737 9.05652 20.8514C9.83519 21.9658 10.9669 22.7877 12.2705 23.1855C13.574 23.5833 14.9739 23.5338 16.2459 23.0452C16.5215 23.5243 16.7933 24.0117 17.0613 24.5074C16.0849 24.9239 15.0338 25.1387 13.9717 25.1387H13.9297L13.8504 25.114L13.8447 25.1368C11.7906 25.1019 9.8323 24.2655 8.39118 22.8075C6.95006 21.3495 6.14126 19.3865 6.13881 17.3408V17.3398ZM6.23429 22.7352C6.63994 23.3102 7.10841 23.8385 7.6311 24.3106C8.84837 26.7513 10.7256 28.8053 13.0514 30.2414C15.3772 31.6776 18.0594 32.4388 20.7961 32.4395C23.5328 32.4402 26.2154 31.6803 28.542 30.2454C30.8686 28.8104 32.7468 26.7574 33.9653 24.3172C34.491 23.8438 34.962 23.3135 35.3697 22.7362C33.2989 28.7686 27.5493 33.1201 20.7992 33.1201C14.049 33.1201 8.29943 28.7686 6.23142 22.7343L6.23429 22.7352ZM27.9914 26.7435C29.4741 26.6881 30.9225 26.2838 32.2181 25.5637C31.0001 27.335 29.3838 28.7988 27.4977 29.8386C25.6117 30.8784 23.5079 31.4656 21.3539 31.5533C23.3694 28.7591 27.0977 27.1067 27.9914 26.7426V26.7435ZM22.9865 27.5906C23.2462 27.0316 23.5129 26.4817 23.7866 25.9411C24.1542 26.1027 24.5318 26.2409 24.917 26.3547C24.2456 26.7217 23.6005 27.1347 22.9865 27.5906ZM16.6803 26.3547C17.0658 26.2403 17.4433 26.1012 17.8108 25.9382C18.0845 26.4821 18.3515 27.0328 18.6118 27.5906C17.9974 27.1347 17.3521 26.7217 16.6803 26.3547ZM20.2435 31.5504C18.084 31.4691 15.9739 30.8836 14.0833 29.8413C12.1927 28.7989 10.5745 27.3288 9.35922 25.5494C10.6588 26.2763 12.1136 26.6844 13.6031 26.7397C14.4968 27.1038 18.2242 28.7562 20.2397 31.5504H20.2435ZM30.7735 18.3466C30.7745 18.8933 30.6443 19.4323 30.3938 19.9188C30.1433 20.4053 29.7798 20.8251 29.3335 21.1435C28.8871 21.4618 28.3709 21.6694 27.8278 21.749C27.2846 21.8286 26.7302 21.7778 26.2107 21.601C27.4357 19.5978 28.7074 17.761 29.9438 16.1181C30.4785 16.7402 30.7727 17.5317 30.7735 18.3504V18.3466ZM30.4814 15.4127C30.6787 15.1592 30.8747 14.9082 31.0695 14.6597C31.5936 15.3314 31.9132 16.1386 31.9906 16.9857C32.0679 17.8328 31.8997 18.6843 31.5058 19.439C31.6902 18.7364 31.6929 17.9986 31.5138 17.2946C31.3346 16.5906 30.9795 15.9432 30.4814 15.4127ZM33.6321 17.3912C33.6342 15.9136 33.0925 14.4866 32.1092 13.38C32.5207 12.8847 32.9217 12.416 33.3075 11.9729C34.6965 13.418 35.4687 15.3432 35.4614 17.3436C35.459 19.3894 34.6502 21.3524 33.209 22.8104C31.7679 24.2683 29.8096 25.1047 27.7555 25.1396L27.7488 25.1168L27.6706 25.1415H27.6285C26.5664 25.1415 25.5153 24.9267 24.5389 24.5102C24.8076 24.0152 25.0793 23.5278 25.3543 23.048C26.2767 23.4027 27.2719 23.5282 28.2539 23.4137C29.2359 23.2993 30.1752 22.9483 30.9904 22.3911C31.8055 21.8339 32.4721 21.0874 32.9324 20.216C33.3927 19.3447 33.6328 18.3748 33.6321 17.3902V17.3912ZM40.6104 4.85385L37.3986 5.62204C37.3652 5.6306 35.7975 6.00233 33.2177 6.4121C31.6369 4.70252 29.7173 3.33794 27.58 2.40455C25.4428 1.47117 23.1343 0.989258 20.8006 0.989258C18.4668 0.989258 16.1584 1.47117 14.0212 2.40455C11.8839 3.33794 9.96426 4.70252 8.38345 6.4121C5.8056 6.00043 4.23693 5.6306 4.20351 5.62204L0.991699 4.85385L1.10054 4.94892L1.02893 4.89949L4.742 12.6004C4.19399 14.279 3.91527 16.0331 3.91613 17.7981C3.91613 27.0687 11.4893 34.6099 20.7992 34.6099C30.109 34.6099 37.6822 27.0687 37.6822 17.7981C37.6837 16.0319 37.4057 14.2765 36.8582 12.5966L40.5713 4.89568L40.4997 4.94512L40.6104 4.85385Z" fill="#414042"/>
</svg>
