<svg width="184" height="40" viewBox="0 0 184 40" fill="none" xmlns="http://www.w3.org/2000/svg">
<path d="M178.73 16.0539C178.835 15.8222 178.985 15.6138 179.172 15.4411C179.36 15.2758 179.577 15.1467 179.811 15.0604C180.171 14.9187 180.563 14.8793 180.944 14.9464C181.325 15.0136 181.68 15.1848 181.97 15.4411C182.155 15.6145 182.305 15.8227 182.411 16.0539C182.522 16.3096 182.578 16.5859 182.575 16.8646C182.58 17.2583 182.463 17.6439 182.24 17.9684C182.018 18.2929 181.699 18.5403 181.33 18.6764C180.838 18.855 180.299 18.855 179.808 18.6764C179.438 18.5403 179.12 18.2929 178.897 17.9684C178.674 17.6439 178.557 17.2583 178.563 16.8646C178.557 16.5856 178.613 16.3089 178.727 16.0539H178.73ZM179.21 17.4813C179.283 17.6684 179.395 17.8382 179.537 17.9799C179.67 18.1168 179.83 18.2255 180.005 18.2996C180.371 18.4506 180.782 18.4506 181.147 18.2996C181.324 18.2264 181.483 18.1176 181.616 17.9799C181.752 17.8414 181.859 17.6771 181.931 17.4965C182.012 17.3009 182.052 17.0912 182.049 16.8799C182.053 16.6684 182.013 16.4586 181.931 16.2632C181.859 16.0826 181.752 15.9183 181.616 15.7798C181.483 15.6421 181.324 15.5333 181.147 15.4601C180.782 15.3091 180.371 15.3091 180.005 15.4601C179.83 15.5342 179.67 15.6429 179.537 15.7798C179.402 15.9185 179.296 16.0829 179.225 16.2632C179.147 16.4594 179.108 16.6688 179.111 16.8799C179.109 17.0908 179.148 17.3002 179.225 17.4965L179.21 17.4813ZM181.486 17.5498C181.431 17.6492 181.359 17.7381 181.273 17.8124C181.187 17.881 181.091 17.935 180.988 17.9723C180.881 18.009 180.769 18.0271 180.656 18.0256C180.497 18.0291 180.339 17.9993 180.192 17.938C180.059 17.883 179.94 17.7999 179.842 17.6944C179.741 17.5841 179.663 17.4547 179.613 17.3138C179.558 17.1614 179.532 17 179.537 16.838C179.535 16.6799 179.56 16.5226 179.613 16.3736C179.658 16.2329 179.732 16.1033 179.83 15.993C179.928 15.8864 180.047 15.802 180.181 15.7456C180.329 15.6856 180.488 15.6558 180.649 15.658C180.765 15.6578 180.881 15.6758 180.991 15.7113C181.094 15.7444 181.189 15.796 181.273 15.8636C181.36 15.9333 181.431 16.0201 181.482 16.1186C181.541 16.2272 181.579 16.3461 181.593 16.4688H181.185C181.162 16.3523 181.095 16.249 180.999 16.1795C180.896 16.1098 180.773 16.0739 180.649 16.0767C180.562 16.0719 180.475 16.0881 180.395 16.1238C180.316 16.1596 180.246 16.2139 180.192 16.2823C180.083 16.438 180.028 16.6252 180.036 16.8151C180.035 16.9134 180.051 17.0111 180.082 17.1044C180.108 17.1926 180.151 17.2751 180.207 17.348C180.26 17.4142 180.326 17.4687 180.401 17.5079C180.481 17.5499 180.57 17.5709 180.66 17.5688C180.788 17.5733 180.915 17.5344 181.018 17.4584C181.064 17.4226 181.103 17.3779 181.132 17.3269C181.161 17.2759 181.179 17.2197 181.185 17.1615H181.608C181.59 17.2832 181.55 17.4006 181.49 17.5079" fill="white"/>
<path d="M172.926 14.7368C171.327 14.7368 169.607 15.6123 168.834 16.8836H168.784V15.1137H164.666V28.0552H168.91V21.1011C168.91 19.4301 169.706 18.2311 171.194 18.2311C172.591 18.2311 173.314 18.9543 173.314 20.4007V28.0629H177.554V19.6546C177.554 16.385 176.009 14.7368 172.914 14.7368H172.926ZM154.077 21.5883C154.077 19.3425 155.074 17.9722 156.619 17.9722C158.366 17.9722 159.242 19.5176 159.242 21.5883C159.242 23.6589 158.366 25.1815 156.646 25.1815C154.998 25.1815 154.077 23.7845 154.077 21.5883ZM156.646 14.7368C152.478 14.7368 149.833 17.858 149.833 21.5883C149.833 25.5316 152.653 28.4397 156.646 28.4397C160.833 28.4397 163.497 25.3451 163.497 21.5883C163.497 17.6449 160.605 14.7368 156.646 14.7368ZM143.023 14.7368C140.252 14.7368 137.108 15.7379 137.108 18.7069C137.108 20.6519 138.033 21.8509 141.002 22.4751C141.999 22.6959 142.996 22.9205 143.872 23.1489C144.747 23.3772 145.193 23.7465 145.193 24.3212C145.193 25.1434 144.294 25.6915 143.198 25.6915C141.801 25.6915 140.914 24.9683 140.914 23.7883H136.906C137.005 26.8562 139.354 28.4283 143.244 28.4283C146.262 28.4283 149.46 27.2331 149.46 23.8378C149.46 22.1897 148.211 20.6443 145.939 20.2713C144.07 19.9439 142.821 19.6699 142.247 19.4225C141.672 19.175 141.375 18.8211 141.375 18.448C141.375 17.8238 141.896 17.4736 143.194 17.4736C144.416 17.4736 145.098 17.9494 145.098 18.9238H149.018C148.915 16.1528 146.822 14.7368 143.054 14.7368H143.023ZM127.447 24.3441C127.447 23.4724 128.022 22.9471 129.195 22.6959L130.668 22.3724C131.066 22.3085 131.452 22.18 131.81 21.9917V22.4904C131.81 24.8351 131.086 25.8095 129.24 25.8095C128.098 25.8095 127.444 25.3337 127.444 24.3364L127.447 24.3441ZM129.865 14.7292C126.096 14.7292 123.873 16.1794 123.725 19.0951H127.691C127.893 18.0255 128.616 17.4736 129.815 17.4736C130.911 17.4736 131.859 17.976 131.859 18.8211C131.859 19.746 131.261 19.9972 130.04 20.1457C129.065 20.2713 128.136 20.4197 127.044 20.6176C124.874 20.9983 123.2 22.0679 123.2 24.5115C123.2 26.9552 124.821 28.4283 127.619 28.4283C129.465 28.4283 130.911 27.8535 131.886 26.8334C131.901 27.2514 131.985 27.6641 132.133 28.0552H136.4C136.041 27.2143 135.871 26.3047 135.901 25.3908V19.0038C135.901 16.3089 134.23 14.7368 129.865 14.7368V14.7292ZM113.307 20.2637C113.581 18.6155 114.601 17.6183 116.025 17.6183C117.448 17.6183 118.472 18.7602 118.571 20.2637H113.307ZM116.051 14.7483C112.409 14.7483 109.063 17.4698 109.063 21.5616C109.063 25.8514 111.91 28.4473 116.15 28.4473C119.294 28.4473 121.837 26.9514 122.587 24.1576H118.636C118.286 25.0292 117.338 25.5773 116.215 25.5773C114.517 25.5773 113.421 24.5306 113.322 22.635H122.838V22.1097C122.838 17.7172 120.318 14.7483 116.078 14.7483H116.051ZM108.29 14.8739C106.387 14.8739 104.971 15.8217 104.4 17.3937H104.351V15.1099H100.217V28.0514H104.457V21.573C104.457 19.9782 105.656 18.5813 107.655 18.5813C108.204 18.5835 108.751 18.6668 109.276 18.8287V14.9614C108.947 14.8903 108.611 14.8571 108.275 14.8625L108.29 14.8739ZM89.4868 20.2637C89.7609 18.6155 90.7848 17.6183 92.2084 17.6183C93.632 17.6183 94.6521 18.7602 94.751 20.2637H89.4868ZM92.2312 14.7483C88.5886 14.7483 85.2466 17.4698 85.2466 21.5616C85.2466 25.8514 88.0899 28.4473 92.334 28.4473C95.478 28.4473 98.0207 26.9514 98.7705 24.1576H94.8043C94.4541 25.0292 93.5063 25.5773 92.3835 25.5773C90.6858 25.5773 89.5896 24.5306 89.4868 22.635H99.0027V22.1097C99.0027 17.7172 96.4829 14.7483 92.2388 14.7483H92.2312ZM75.2968 21.4627C75.2968 19.1141 76.4387 17.9951 77.8927 17.9951C79.5409 17.9951 80.4125 19.4415 80.4125 21.4627C80.4125 23.6323 79.4914 25.2043 77.8699 25.2043C76.0733 25.2043 75.2968 23.9558 75.2968 21.4627ZM71.205 10.2568V28.0743H75.2435V26.5784H75.293C75.6763 27.1715 76.2065 27.6554 76.8321 27.9829C77.4578 28.3103 78.1575 28.4704 78.8633 28.4473C82.978 28.4473 84.6528 24.9036 84.6528 21.3104C84.6528 17.82 82.7496 14.7483 79.1869 14.7483C78.4704 14.7155 77.7571 14.8628 77.1121 15.1766C76.4672 15.4904 75.9111 15.9608 75.4947 16.5449H75.4452V10.2454L71.205 10.2568ZM56.7409 15.1251L60.1095 24.207C60.8061 26.0759 61.1562 27.0275 61.1562 27.5262C61.1562 28.3978 60.4825 28.9726 59.3596 28.9726H57.9894V32.3983H60.433C63.2041 32.3983 64.4754 31.7779 65.4498 29.083L70.5122 15.1099H66.1844L63.7369 23.5409H63.6875L61.2438 15.1099L56.7409 15.1251ZM50.7535 14.7445C46.7607 14.7445 43.9668 17.5421 43.9668 21.809C43.9668 25.9009 46.9852 28.4435 50.7535 28.4435C54.2211 28.4435 56.8665 26.4718 57.2662 22.9814H53.1667C52.9688 24.4773 52.1695 25.2005 50.7725 25.2005C49.1244 25.2005 48.2261 23.7769 48.2261 21.7748C48.2261 19.1294 49.151 17.9684 50.9705 17.9684C51.4927 17.9425 52.0039 18.1247 52.392 18.475C52.7801 18.8253 53.0136 19.3152 53.0411 19.8373H57.1596C56.8589 16.5943 54.1906 14.7216 50.7725 14.7216" fill="#414042"/>
<path d="M20.7991 2C23.2511 2 25.6773 2.50256 27.9261 3.47656C30.0422 4.39315 31.9587 5.70909 33.571 7.35C34.6305 7.17408 35.4892 7.01169 36.1015 6.8875C36.4461 6.81759 36.713 6.76002 36.894 6.72031C36.9846 6.70046 37.054 6.68492 37.1018 6.67422C37.125 6.66903 37.1452 6.6645 37.1597 6.66133C37.1656 6.66003 37.1731 6.65817 37.1804 6.65664L40.3772 5.89062C40.5623 5.84595 40.7557 5.85555 40.9347 5.91758L41.0112 5.94766L41.0851 5.98398C41.2535 6.07592 41.3925 6.21549 41.4839 6.38633L41.4882 6.39453C41.5886 6.58758 41.6225 6.80852 41.5847 7.02305C41.5594 7.16624 41.5024 7.30052 41.4202 7.41797L37.9198 14.6742C38.4207 16.3358 38.675 18.062 38.6733 19.798L38.6675 20.257C38.4222 29.8657 30.4987 37.6 20.7991 37.6C11.0996 37.6 3.17639 29.8657 2.93114 20.257L2.92528 19.798C2.92389 18.0619 3.17756 16.3356 3.67802 14.6738L0.178799 7.4168C0.0953908 7.2972 0.0379636 7.16032 0.0135649 7.01445C-0.0226639 6.7977 0.0141582 6.57525 0.118252 6.38203L0.160049 6.31133C0.264149 6.15144 0.412663 6.02472 0.587393 5.94687L0.663174 5.9168C0.816909 5.86298 0.981584 5.84815 1.14247 5.87305L1.22255 5.88867L4.4206 6.65742C4.42598 6.65856 4.43109 6.66 4.43544 6.66094C4.45016 6.66413 4.47061 6.66864 4.49403 6.67383C4.54217 6.68448 4.61187 6.69979 4.70263 6.71953C4.88411 6.75901 5.15139 6.81621 5.49638 6.88594C6.10907 7.00977 6.96791 7.17234 8.02763 7.34961C9.63989 5.70881 11.5565 4.39309 13.6726 3.47656C15.9213 2.50259 18.3471 2.00001 20.7991 2Z" fill="white"/>
<path d="M37.4487 9.62523L35.375 13.9416C35.0776 13.5228 34.7468 13.1286 34.3859 12.7627C35.7139 11.3099 36.7976 10.2451 37.4487 9.62999V9.62523ZM35.0112 9.74408C33.8388 10.9258 32.2539 12.6219 30.4952 14.7725C27.5622 18.3577 23.6525 23.8539 20.7996 30.5214C17.9468 23.8539 14.038 18.3577 11.1041 14.7706C9.34538 12.62 7.76239 10.9239 6.58804 9.74217C11.2647 10.5718 15.9996 11.034 20.749 11.1245H20.8493C25.599 11.0341 30.3343 10.5719 35.0112 9.74217V9.74408ZM20.7996 6.02196C23.888 6.01645 26.8885 7.04512 29.319 8.94261C26.8423 9.22783 23.9437 9.46076 20.8216 9.51305H20.7739C17.6537 9.46266 14.7589 9.22783 12.2765 8.94261C14.7078 7.04398 17.7099 6.01523 20.7996 6.02196ZM31.3879 8.68401C31.1015 8.72299 30.8055 8.76197 30.5057 8.8C27.8222 6.45142 24.3718 5.15612 20.7992 5.15612C17.2265 5.15612 13.7761 6.45142 11.0926 8.8C10.7928 8.76197 10.4949 8.72299 10.2114 8.68401C13.0699 5.98408 16.8597 4.47901 20.7996 4.47901C24.7396 4.47901 28.5294 5.98408 31.3879 8.68401ZM7.2134 12.7627C6.85249 13.1286 6.52171 13.5228 6.22427 13.9416L4.15053 9.62523C4.80168 10.2432 5.88533 11.308 7.2134 12.7627ZM11.7581 18.2531C12.9687 19.8694 14.2099 21.6701 15.4072 23.6314C15.2427 23.6835 15.0753 23.726 14.9059 23.7588C14.7681 23.7751 14.6294 23.7834 14.4906 23.7835C13.846 23.7841 13.2143 23.6047 12.6669 23.2658C12.1196 22.9269 11.6786 22.4419 11.3941 21.866C11.1095 21.2901 10.9928 20.6464 11.0571 20.0077C11.1215 19.3691 11.3643 18.7613 11.7581 18.2531ZM10.1674 20.3447C10.1667 20.9759 10.3066 21.5993 10.577 22.1701C9.94713 21.3905 9.59969 20.4221 9.59085 19.4214C9.58202 18.4208 9.91231 17.4465 10.5283 16.6559C10.7556 16.943 10.985 17.2371 11.2167 17.5382C10.5407 18.3192 10.1681 19.3156 10.1665 20.3466L10.1674 20.3447ZM6.1393 19.3398C6.13208 17.3396 6.90381 15.4145 8.29228 13.9691C8.67992 14.4128 9.07932 14.8818 9.49051 15.3762C8.5882 16.394 8.05504 17.6838 7.97644 19.0392C7.89784 20.3946 8.27835 21.737 9.05701 22.8514C9.83567 23.9658 10.9674 24.7877 12.271 25.1855C13.5745 25.5833 14.9744 25.5338 16.2464 25.0452C16.522 25.5243 16.7938 26.0117 17.0618 26.5074C16.0854 26.9239 15.0343 27.1387 13.9722 27.1387H13.9301L13.8509 27.114L13.8452 27.1368C11.7911 27.1019 9.83279 26.2655 8.39167 24.8075C6.95055 23.3495 6.14175 21.3865 6.1393 19.3408V19.3398ZM6.23477 24.7352C6.64043 25.3102 7.1089 25.8385 7.63159 26.3106C8.84886 28.7513 10.726 30.8053 13.0519 32.2414C15.3777 33.6776 18.0599 34.4388 20.7966 34.4395C23.5333 34.4402 26.2159 33.6803 28.5425 32.2454C30.869 30.8104 32.7473 28.7574 33.9658 26.3172C34.4914 25.8438 34.9625 25.3135 35.3702 24.7362C33.2994 30.7686 27.5498 35.1201 20.7996 35.1201C14.0495 35.1201 8.29992 30.7686 6.23191 24.7343L6.23477 24.7352ZM27.9918 28.7435C29.4746 28.6881 30.923 28.2838 32.2186 27.5637C31.0006 29.335 29.3843 30.7988 27.4982 31.8386C25.6122 32.8784 23.5084 33.4656 21.3544 33.5533C23.3699 30.7591 27.0982 29.1067 27.9918 28.7426V28.7435ZM22.987 29.5906C23.2467 29.0316 23.5134 28.4817 23.7871 27.9411C24.1547 28.1027 24.5323 28.2409 24.9175 28.3547C24.2461 28.7217 23.601 29.1347 22.987 29.5906ZM16.6808 28.3547C17.0662 28.2403 17.4438 28.1012 17.8112 27.9382C18.0849 28.4821 18.352 29.0328 18.6123 29.5906C17.9979 29.1347 17.3526 28.7217 16.6808 28.3547ZM20.244 33.5504C18.0845 33.4691 15.9744 32.8836 14.0838 31.8413C12.1932 30.7989 10.575 29.3288 9.3597 27.5494C10.6593 28.2763 12.1141 28.6844 13.6036 28.7397C14.4973 29.1038 18.2247 30.7562 20.2402 33.5504H20.244ZM30.774 20.3466C30.7749 20.8933 30.6448 21.4323 30.3943 21.9188C30.1438 22.4053 29.7803 22.8251 29.3339 23.1435C28.8876 23.4618 28.3714 23.6694 27.8282 23.749C27.2851 23.8286 26.7307 23.7778 26.2112 23.601C27.4362 21.5978 28.7079 19.761 29.9443 18.1181C30.4789 18.7402 30.7731 19.5317 30.774 20.3504V20.3466ZM30.4819 17.4127C30.6792 17.1592 30.8752 16.9082 31.07 16.6597C31.5941 17.3314 31.9137 18.1386 31.9911 18.9857C32.0684 19.8328 31.9002 20.6843 31.5063 21.439C31.6907 20.7364 31.6934 19.9986 31.5143 19.2946C31.3351 18.5906 30.98 17.9432 30.4819 17.4127ZM33.6326 19.3912C33.6347 17.9136 33.0929 16.4866 32.1097 15.38C32.5212 14.8847 32.9222 14.416 33.308 13.9729C34.697 15.418 35.4692 17.3432 35.4619 19.3436C35.4594 21.3894 34.6506 23.3524 33.2095 24.8104C31.7684 26.2683 29.8101 27.1047 27.756 27.1396L27.7493 27.1168L27.671 27.1415H27.629C26.5669 27.1415 25.5158 26.9267 24.5394 26.5102C24.808 26.0152 25.0798 25.5278 25.3548 25.048C26.2772 25.4027 27.2724 25.5282 28.2544 25.4137C29.2364 25.2993 30.1757 24.9483 30.9908 24.3911C31.806 23.8339 32.4726 23.0874 32.9329 22.216C33.3932 21.3447 33.6333 20.3748 33.6326 19.3902V19.3912ZM40.6109 6.85385L37.3991 7.62204C37.3657 7.6306 35.798 8.00233 33.2182 8.4121C31.6374 6.70252 29.7177 5.33794 27.5805 4.40455C25.4432 3.47117 23.1348 2.98926 20.8011 2.98926C18.4673 2.98926 16.1589 3.47117 14.0217 4.40455C11.8844 5.33794 9.96475 6.70252 8.38394 8.4121C5.80609 8.00043 4.23742 7.6306 4.204 7.62204L0.992188 6.85385L1.10103 6.94892L1.02942 6.89949L4.74249 14.6004C4.19448 16.279 3.91576 18.0331 3.91662 19.7981C3.91662 29.0687 11.4898 36.6099 20.7996 36.6099C30.1095 36.6099 37.6827 29.0687 37.6827 19.7981C37.6842 18.0319 37.4062 16.2765 36.8587 14.5966L40.5718 6.89568L40.5002 6.94512L40.6109 6.85385Z" fill="#414042"/>
</svg>
